<?xml version="1.0" encoding="UTF-8" standalone="no"?>
<!DOCTYPE svg PUBLIC "-//W3C//DTD SVG 1.1//EN"
 "http://www.w3.org/Graphics/SVG/1.1/DTD/svg11.dtd">
<!-- Generated by graphviz version 2.40.1 (20161225.0304)
 -->
<!-- Title: eb Pages: 1 -->
<svg width="766pt" height="586pt"
 viewBox="0.00 0.00 766.00 586.00" xmlns="http://www.w3.org/2000/svg" xmlns:xlink="http://www.w3.org/1999/xlink">
<g id="graph0" class="graph" transform="scale(1 1) rotate(0) translate(4 582)">
<title>eb</title>
<polygon fill="#ffffff" stroke="transparent" points="-4,4 -4,-582 762,-582 762,4 -4,4"/>
<!-- public.migration -->
<g id="node1" class="node">
<title>public.migration</title>
<polygon fill="#efefef" stroke="transparent" points="43,-454.5 43,-489.5 321,-489.5 321,-454.5 43,-454.5"/>
<polygon fill="none" stroke="#000000" points="43,-454.5 43,-489.5 321,-489.5 321,-454.5 43,-454.5"/>
<text text-anchor="start" x="55.2115" y="-467.3" font-family="Arial Bold" font-size="18.00" fill="#000000">public.migration</text>
<text text-anchor="start" x="181.2205" y="-467.3" font-family="Arial" font-size="14.00" fill="#000000">    </text>
<text text-anchor="start" x="215.4253" y="-467.3" font-family="Arial" font-size="14.00" fill="#666666">[BASE TABLE]</text>
<polygon fill="none" stroke="#000000" points="43,-424.5 43,-454.5 321,-454.5 321,-424.5 43,-424.5"/>
<text text-anchor="start" x="50" y="-435.9" font-family="Arial" font-size="14.00" fill="#000000">id    </text>
<text text-anchor="start" x="95.094" y="-435.9" font-family="Arial" font-size="14.00" fill="#666666">[text]</text>
<polygon fill="none" stroke="#000000" points="43,-394.5 43,-424.5 321,-424.5 321,-394.5 43,-394.5"/>
<text text-anchor="start" x="49.7644" y="-405.9" font-family="Arial" font-size="14.00" fill="#000000">applied_at    </text>
<text text-anchor="start" x="148.5512" y="-405.9" font-family="Arial" font-size="14.00" fill="#666666">[timestamp with time zone]</text>
</g>
<!-- public.accounts -->
<g id="node2" class="node">
<title>public.accounts</title>
<polygon fill="#efefef" stroke="transparent" points="428,-192.5 428,-227.5 711,-227.5 711,-192.5 428,-192.5"/>
<polygon fill="none" stroke="#000000" points="428,-192.5 428,-227.5 711,-227.5 711,-192.5 428,-192.5"/>
<text text-anchor="start" x="443.6979" y="-205.3" font-family="Arial Bold" font-size="18.00" fill="#000000">public.accounts</text>
<text text-anchor="start" x="567.7341" y="-205.3" font-family="Arial" font-size="14.00" fill="#000000">    </text>
<text text-anchor="start" x="601.9389" y="-205.3" font-family="Arial" font-size="14.00" fill="#666666">[BASE TABLE]</text>
<polygon fill="none" stroke="#000000" points="428,-162.5 428,-192.5 711,-192.5 711,-162.5 428,-162.5"/>
<text text-anchor="start" x="435" y="-173.9" font-family="Arial" font-size="14.00" fill="#000000">id    </text>
<text text-anchor="start" x="480.094" y="-173.9" font-family="Arial" font-size="14.00" fill="#666666">[integer]</text>
<polygon fill="none" stroke="#000000" points="428,-132.5 428,-162.5 711,-162.5 711,-132.5 428,-132.5"/>
<text text-anchor="start" x="435" y="-143.9" font-family="Arial" font-size="14.00" fill="#000000">name    </text>
<text text-anchor="start" x="504.2132" y="-143.9" font-family="Arial" font-size="14.00" fill="#666666">[varchar(255)]</text>
<polygon fill="none" stroke="#000000" points="428,-102.5 428,-132.5 711,-132.5 711,-102.5 428,-102.5"/>
<text text-anchor="start" x="435" y="-113.9" font-family="Arial" font-size="14.00" fill="#000000">balance    </text>
<text text-anchor="start" x="518.2244" y="-113.9" font-family="Arial" font-size="14.00" fill="#666666">[integer]</text>
<polygon fill="none" stroke="#000000" points="428,-72.5 428,-102.5 711,-102.5 711,-72.5 428,-72.5"/>
<text text-anchor="start" x="435" y="-83.9" font-family="Arial" font-size="14.00" fill="#000000">created_at    </text>
<text text-anchor="start" x="535.3422" y="-83.9" font-family="Arial" font-size="14.00" fill="#666666">[timestamp with time zone]</text>
<polygon fill="none" stroke="#000000" points="428,-42.5 428,-72.5 711,-72.5 711,-42.5 428,-42.5"/>
<text text-anchor="start" x="434.5344" y="-53.9" font-family="Arial" font-size="14.00" fill="#000000">updated_at    </text>
<text text-anchor="start" x="538.7812" y="-53.9" font-family="Arial" font-size="14.00" fill="#666666">[timestamp with time zone]</text>
</g>
<!-- public.transactions -->
<g id="node3" class="node">
<title>public.transactions</title>
<polygon fill="#efefef" stroke="transparent" points="425,-499.5 425,-534.5 715,-534.5 715,-499.5 425,-499.5"/>
<polygon fill="none" stroke="#000000" points="425,-499.5 425,-534.5 715,-534.5 715,-499.5 425,-499.5"/>
<text text-anchor="start" x="431.7005" y="-512.3" font-family="Arial Bold" font-size="18.00" fill="#000000">public.transactions</text>
<text text-anchor="start" x="580.7315" y="-512.3" font-family="Arial" font-size="14.00" fill="#000000">    </text>
<text text-anchor="start" x="614.9363" y="-512.3" font-family="Arial" font-size="14.00" fill="#666666">[BASE TABLE]</text>
<polygon fill="none" stroke="#000000" points="425,-469.5 425,-499.5 715,-499.5 715,-469.5 425,-469.5"/>
<text text-anchor="start" x="432" y="-480.9" font-family="Arial" font-size="14.00" fill="#000000">id    </text>
<text text-anchor="start" x="477.094" y="-480.9" font-family="Arial" font-size="14.00" fill="#666666">[integer]</text>
<polygon fill="none" stroke="#000000" points="425,-439.5 425,-469.5 715,-469.5 715,-439.5 425,-439.5"/>
<text text-anchor="start" x="432" y="-450.9" font-family="Arial" font-size="14.00" fill="#000000">account_id    </text>
<text text-anchor="start" x="533.8976" y="-450.9" font-family="Arial" font-size="14.00" fill="#666666">[integer]</text>
<polygon fill="none" stroke="#000000" points="425,-409.5 425,-439.5 715,-439.5 715,-409.5 425,-409.5"/>
<text text-anchor="start" x="432" y="-420.9" font-family="Arial" font-size="14.00" fill="#000000">type    </text>
<text text-anchor="start" x="492.6606" y="-420.9" font-family="Arial" font-size="14.00" fill="#666666">[varchar(255)]</text>
<polygon fill="none" stroke="#000000" points="425,-379.5 425,-409.5 715,-409.5 715,-379.5 425,-379.5"/>
<text text-anchor="start" x="432" y="-390.9" font-family="Arial" font-size="14.00" fill="#000000">amount    </text>
<text text-anchor="start" x="512.8864" y="-390.9" font-family="Arial" font-size="14.00" fill="#666666">[integer]</text>
<polygon fill="none" stroke="#000000" points="425,-349.5 425,-379.5 715,-379.5 715,-349.5 425,-349.5"/>
<text text-anchor="start" x="432" y="-360.9" font-family="Arial" font-size="14.00" fill="#000000">date    </text>
<text text-anchor="start" x="493.4432" y="-360.9" font-family="Arial" font-size="14.00" fill="#666666">[timestamp with time zone]</text>
</g>
<!-- public.transactions&#45;&gt;public.accounts -->
<g id="edge1" class="edge">
<title>public.transactions:account_id&#45;&gt;public.accounts:id</title>
<path fill="none" stroke="#000000" d="M415.0212,-453.6418C361.935,-443.8916 384.0078,-353.4756 425,-307 509.7449,-210.9191 626.2551,-367.0809 711,-271 738.4882,-239.8349 752.5556,-177.5 711,-177.5"/>
<polygon fill="#000000" stroke="#000000" points="415.0368,-453.6431 424.6144,-458.9835 420.0184,-454.0715 425,-454.5 425,-454.5 425,-454.5 420.0184,-454.0715 425.3856,-450.0165 415.0368,-453.6431 415.0368,-453.6431"/>
<text text-anchor="start" x="431.7665" y="-464.5" font-family="Arial" font-size="10.00" fill="#000000">FOREIGN KEY (account_id) REFERENCES accounts(id)</text>
</g>
</g>
</svg>
