<?xml version="1.0" encoding="UTF-8" standalone="no"?>
<!DOCTYPE svg PUBLIC "-//W3C//DTD SVG 1.1//EN"
 "http://www.w3.org/Graphics/SVG/1.1/DTD/svg11.dtd">
<!-- Generated by graphviz version 2.40.1 (20161225.0304)
 -->
<!-- Title: public.accounts Pages: 1 -->
<svg width="609pt" height="592pt"
 viewBox="0.00 0.00 609.00 592.00" xmlns="http://www.w3.org/2000/svg" xmlns:xlink="http://www.w3.org/1999/xlink">
<g id="graph0" class="graph" transform="scale(1 1) rotate(0) translate(4 588)">
<title>public.accounts</title>
<polygon fill="#ffffff" stroke="transparent" points="-4,4 -4,-588 605,-588 605,4 -4,4"/>
<!-- public.accounts -->
<g id="node1" class="node">
<title>public.accounts</title>
<polygon fill="#efefef" stroke="transparent" points="280,-195.5 280,-230.5 545,-230.5 545,-195.5 280,-195.5"/>
<polygon fill="none" stroke="#000000" points="280,-195.5 280,-230.5 545,-230.5 545,-195.5 280,-195.5"/>
<text text-anchor="start" x="286.6979" y="-208.3" font-family="Arial Bold" font-size="18.00" fill="#000000">public.accounts</text>
<text text-anchor="start" x="410.7341" y="-208.3" font-family="Arial" font-size="14.00" fill="#000000">    </text>
<text text-anchor="start" x="444.9389" y="-208.3" font-family="Arial" font-size="14.00" fill="#666666">[BASE TABLE]</text>
<polygon fill="none" stroke="#000000" points="280,-165.5 280,-195.5 545,-195.5 545,-165.5 280,-165.5"/>
<text text-anchor="start" x="287" y="-176.9" font-family="Arial" font-size="14.00" fill="#000000">id </text>
<text text-anchor="start" x="301.7798" y="-176.9" font-family="Arial" font-size="14.00" fill="#666666">[integer]</text>
<polygon fill="none" stroke="#000000" points="280,-135.5 280,-165.5 545,-165.5 545,-135.5 280,-135.5"/>
<text text-anchor="start" x="287" y="-146.9" font-family="Arial" font-size="14.00" fill="#000000">name </text>
<text text-anchor="start" x="325.899" y="-146.9" font-family="Arial" font-size="14.00" fill="#666666">[varchar(255)]</text>
<polygon fill="none" stroke="#000000" points="280,-105.5 280,-135.5 545,-135.5 545,-105.5 280,-105.5"/>
<text text-anchor="start" x="287" y="-116.9" font-family="Arial" font-size="14.00" fill="#000000">balance </text>
<text text-anchor="start" x="339.9102" y="-116.9" font-family="Arial" font-size="14.00" fill="#666666">[integer]</text>
<polygon fill="none" stroke="#000000" points="280,-75.5 280,-105.5 545,-105.5 545,-75.5 280,-75.5"/>
<text text-anchor="start" x="287" y="-86.9" font-family="Arial" font-size="14.00" fill="#000000">created_at </text>
<text text-anchor="start" x="357.028" y="-86.9" font-family="Arial" font-size="14.00" fill="#666666">[timestamp with time zone]</text>
<polygon fill="none" stroke="#000000" points="280,-45.5 280,-75.5 545,-75.5 545,-45.5 280,-45.5"/>
<text text-anchor="start" x="287" y="-56.9" font-family="Arial" font-size="14.00" fill="#000000">updated_at </text>
<text text-anchor="start" x="360.9326" y="-56.9" font-family="Arial" font-size="14.00" fill="#666666">[timestamp with time zone]</text>
<polygon fill="none" stroke="#000000" stroke-width="3" points="278,-44.5 278,-232.5 546,-232.5 546,-44.5 278,-44.5"/>
</g>
<!-- public.transactions -->
<g id="node2" class="node">
<title>public.transactions</title>
<polygon fill="#efefef" stroke="transparent" points="268,-505.5 268,-540.5 558,-540.5 558,-505.5 268,-505.5"/>
<polygon fill="none" stroke="#000000" points="268,-505.5 268,-540.5 558,-540.5 558,-505.5 268,-505.5"/>
<text text-anchor="start" x="274.7005" y="-518.3" font-family="Arial Bold" font-size="18.00" fill="#000000">public.transactions</text>
<text text-anchor="start" x="423.7315" y="-518.3" font-family="Arial" font-size="14.00" fill="#000000">    </text>
<text text-anchor="start" x="457.9363" y="-518.3" font-family="Arial" font-size="14.00" fill="#666666">[BASE TABLE]</text>
<polygon fill="none" stroke="#000000" points="268,-475.5 268,-505.5 558,-505.5 558,-475.5 268,-475.5"/>
<text text-anchor="start" x="275" y="-486.9" font-family="Arial" font-size="14.00" fill="#000000">id    </text>
<text text-anchor="start" x="320.094" y="-486.9" font-family="Arial" font-size="14.00" fill="#666666">[integer]</text>
<polygon fill="none" stroke="#000000" points="268,-445.5 268,-475.5 558,-475.5 558,-445.5 268,-445.5"/>
<text text-anchor="start" x="275" y="-456.9" font-family="Arial" font-size="14.00" fill="#000000">account_id    </text>
<text text-anchor="start" x="376.8976" y="-456.9" font-family="Arial" font-size="14.00" fill="#666666">[integer]</text>
<polygon fill="none" stroke="#000000" points="268,-415.5 268,-445.5 558,-445.5 558,-415.5 268,-415.5"/>
<text text-anchor="start" x="275" y="-426.9" font-family="Arial" font-size="14.00" fill="#000000">type    </text>
<text text-anchor="start" x="335.6606" y="-426.9" font-family="Arial" font-size="14.00" fill="#666666">[varchar(255)]</text>
<polygon fill="none" stroke="#000000" points="268,-385.5 268,-415.5 558,-415.5 558,-385.5 268,-385.5"/>
<text text-anchor="start" x="275" y="-396.9" font-family="Arial" font-size="14.00" fill="#000000">amount    </text>
<text text-anchor="start" x="355.8864" y="-396.9" font-family="Arial" font-size="14.00" fill="#666666">[integer]</text>
<polygon fill="none" stroke="#000000" points="268,-355.5 268,-385.5 558,-385.5 558,-355.5 268,-355.5"/>
<text text-anchor="start" x="275" y="-366.9" font-family="Arial" font-size="14.00" fill="#000000">date    </text>
<text text-anchor="start" x="336.4432" y="-366.9" font-family="Arial" font-size="14.00" fill="#666666">[timestamp with time zone]</text>
</g>
<!-- public.transactions&#45;&gt;public.accounts -->
<g id="edge1" class="edge">
<title>public.transactions:account_id&#45;&gt;public.accounts:id</title>
<path fill="none" stroke="#000000" d="M258.022,-459.6426C204.9452,-449.9006 227.1014,-359.5579 268,-313 349.9329,-219.7297 463.0671,-370.2703 545,-277 573.3054,-244.7779 587.8889,-180.5 545,-180.5"/>
<polygon fill="#000000" stroke="#000000" points="258.0367,-459.6438 267.6147,-464.9835 263.0184,-460.0719 268,-460.5 268,-460.5 268,-460.5 263.0184,-460.0719 268.3853,-456.0165 258.0367,-459.6438 258.0367,-459.6438"/>
<text text-anchor="start" x="6.7665" y="-470.5" font-family="Arial" font-size="10.00" fill="#000000">FOREIGN KEY (account_id) REFERENCES accounts(id)</text>
</g>
</g>
</svg>
