<?xml version="1.0" encoding="UTF-8" standalone="no"?>
<!DOCTYPE svg PUBLIC "-//W3C//DTD SVG 1.1//EN"
 "http://www.w3.org/Graphics/SVG/1.1/DTD/svg11.dtd">
<!-- Generated by graphviz version 2.40.1 (20161225.0304)
 -->
<!-- Title: public.transactions Pages: 1 -->
<svg width="612pt" height="592pt"
 viewBox="0.00 0.00 612.00 592.00" xmlns="http://www.w3.org/2000/svg" xmlns:xlink="http://www.w3.org/1999/xlink">
<g id="graph0" class="graph" transform="scale(1 1) rotate(0) translate(4 588)">
<title>public.transactions</title>
<polygon fill="#ffffff" stroke="transparent" points="-4,4 -4,-588 608,-588 608,4 -4,4"/>
<!-- public.transactions -->
<g id="node1" class="node">
<title>public.transactions</title>
<polygon fill="#efefef" stroke="transparent" points="268,-502.5 268,-537.5 558,-537.5 558,-502.5 268,-502.5"/>
<polygon fill="none" stroke="#000000" points="268,-502.5 268,-537.5 558,-537.5 558,-502.5 268,-502.5"/>
<text text-anchor="start" x="274.7005" y="-515.3" font-family="Arial Bold" font-size="18.00" fill="#000000">public.transactions</text>
<text text-anchor="start" x="423.7315" y="-515.3" font-family="Arial" font-size="14.00" fill="#000000">    </text>
<text text-anchor="start" x="457.9363" y="-515.3" font-family="Arial" font-size="14.00" fill="#666666">[BASE TABLE]</text>
<polygon fill="none" stroke="#000000" points="268,-472.5 268,-502.5 558,-502.5 558,-472.5 268,-472.5"/>
<text text-anchor="start" x="275" y="-483.9" font-family="Arial" font-size="14.00" fill="#000000">id </text>
<text text-anchor="start" x="289.7798" y="-483.9" font-family="Arial" font-size="14.00" fill="#666666">[integer]</text>
<polygon fill="none" stroke="#000000" points="268,-442.5 268,-472.5 558,-472.5 558,-442.5 268,-442.5"/>
<text text-anchor="start" x="275" y="-453.9" font-family="Arial" font-size="14.00" fill="#000000">account_id </text>
<text text-anchor="start" x="346.5834" y="-453.9" font-family="Arial" font-size="14.00" fill="#666666">[integer]</text>
<polygon fill="none" stroke="#000000" points="268,-412.5 268,-442.5 558,-442.5 558,-412.5 268,-412.5"/>
<text text-anchor="start" x="275" y="-423.9" font-family="Arial" font-size="14.00" fill="#000000">type </text>
<text text-anchor="start" x="305.3464" y="-423.9" font-family="Arial" font-size="14.00" fill="#666666">[varchar(255)]</text>
<polygon fill="none" stroke="#000000" points="268,-382.5 268,-412.5 558,-412.5 558,-382.5 268,-382.5"/>
<text text-anchor="start" x="275" y="-393.9" font-family="Arial" font-size="14.00" fill="#000000">amount </text>
<text text-anchor="start" x="325.5722" y="-393.9" font-family="Arial" font-size="14.00" fill="#666666">[integer]</text>
<polygon fill="none" stroke="#000000" points="268,-352.5 268,-382.5 558,-382.5 558,-352.5 268,-352.5"/>
<text text-anchor="start" x="275" y="-363.9" font-family="Arial" font-size="14.00" fill="#000000">date </text>
<text text-anchor="start" x="306.129" y="-363.9" font-family="Arial" font-size="14.00" fill="#666666">[timestamp with time zone]</text>
<polygon fill="none" stroke="#000000" stroke-width="3" points="266.5,-351.5 266.5,-539.5 559.5,-539.5 559.5,-351.5 266.5,-351.5"/>
</g>
<!-- public.accounts -->
<g id="node2" class="node">
<title>public.accounts</title>
<polygon fill="#efefef" stroke="transparent" points="271,-192.5 271,-227.5 554,-227.5 554,-192.5 271,-192.5"/>
<polygon fill="none" stroke="#000000" points="271,-192.5 271,-227.5 554,-227.5 554,-192.5 271,-192.5"/>
<text text-anchor="start" x="286.6979" y="-205.3" font-family="Arial Bold" font-size="18.00" fill="#000000">public.accounts</text>
<text text-anchor="start" x="410.7341" y="-205.3" font-family="Arial" font-size="14.00" fill="#000000">    </text>
<text text-anchor="start" x="444.9389" y="-205.3" font-family="Arial" font-size="14.00" fill="#666666">[BASE TABLE]</text>
<polygon fill="none" stroke="#000000" points="271,-162.5 271,-192.5 554,-192.5 554,-162.5 271,-162.5"/>
<text text-anchor="start" x="278" y="-173.9" font-family="Arial" font-size="14.00" fill="#000000">id    </text>
<text text-anchor="start" x="323.094" y="-173.9" font-family="Arial" font-size="14.00" fill="#666666">[integer]</text>
<polygon fill="none" stroke="#000000" points="271,-132.5 271,-162.5 554,-162.5 554,-132.5 271,-132.5"/>
<text text-anchor="start" x="278" y="-143.9" font-family="Arial" font-size="14.00" fill="#000000">name    </text>
<text text-anchor="start" x="347.2132" y="-143.9" font-family="Arial" font-size="14.00" fill="#666666">[varchar(255)]</text>
<polygon fill="none" stroke="#000000" points="271,-102.5 271,-132.5 554,-132.5 554,-102.5 271,-102.5"/>
<text text-anchor="start" x="278" y="-113.9" font-family="Arial" font-size="14.00" fill="#000000">balance    </text>
<text text-anchor="start" x="361.2244" y="-113.9" font-family="Arial" font-size="14.00" fill="#666666">[integer]</text>
<polygon fill="none" stroke="#000000" points="271,-72.5 271,-102.5 554,-102.5 554,-72.5 271,-72.5"/>
<text text-anchor="start" x="278" y="-83.9" font-family="Arial" font-size="14.00" fill="#000000">created_at    </text>
<text text-anchor="start" x="378.3422" y="-83.9" font-family="Arial" font-size="14.00" fill="#666666">[timestamp with time zone]</text>
<polygon fill="none" stroke="#000000" points="271,-42.5 271,-72.5 554,-72.5 554,-42.5 271,-42.5"/>
<text text-anchor="start" x="277.5344" y="-53.9" font-family="Arial" font-size="14.00" fill="#000000">updated_at    </text>
<text text-anchor="start" x="381.7812" y="-53.9" font-family="Arial" font-size="14.00" fill="#666666">[timestamp with time zone]</text>
</g>
<!-- public.transactions&#45;&gt;public.accounts -->
<g id="edge1" class="edge">
<title>public.transactions:account_id&#45;&gt;public.accounts:id</title>
<path fill="none" stroke="#000000" d="M257.8182,-456.6244C203.6523,-446.6758 226.174,-354.4208 268,-307 352.7449,-210.9191 469.2551,-367.0809 554,-271 581.4882,-239.8349 595.5556,-177.5 554,-177.5"/>
<polygon fill="#000000" stroke="#000000" points="258.0368,-456.6431 267.6144,-461.9835 263.0184,-457.0715 268,-457.5 268,-457.5 268,-457.5 263.0184,-457.0715 268.3856,-453.0165 258.0368,-456.6431 258.0368,-456.6431"/>
<text text-anchor="start" x="6.7665" y="-467.5" font-family="Arial" font-size="10.00" fill="#000000">FOREIGN KEY (account_id) REFERENCES accounts(id)</text>
</g>
</g>
</svg>
